<svg xmlns="http://www.w3.org/2000/svg" viewBox="0 0 1350.13 74.12"><defs><style>.cls-1{fill:lime;}</style></defs><g id="레이어_2" data-name="레이어 2"><g id="레이어_1-2" data-name="레이어 1"><rect class="cls-1" x="459.52" y="44.47" width="14.82" height="14.82"/><rect class="cls-1" x="281.64" y="44.47" width="14.82" height="14.82"/><rect class="cls-1" x="103.76" y="44.47" width="14.82" height="14.82"/><rect class="cls-1" x="370.58" y="44.47" width="14.82" height="14.82"/><rect class="cls-1" x="192.7" y="44.47" width="14.82" height="14.82"/><rect class="cls-1" x="14.82" y="44.47" width="14.82" height="14.82"/><rect class="cls-1" x="429.88" y="44.47" width="14.82" height="14.82"/><rect class="cls-1" x="518.82" y="44.47" width="14.82" height="14.82"/><rect class="cls-1" x="252" y="44.47" width="14.82" height="14.82"/><rect class="cls-1" x="74.12" y="44.47" width="14.82" height="14.82"/><rect class="cls-1" x="340.94" y="44.47" width="14.82" height="14.82"/><rect class="cls-1" x="163.06" y="44.47" width="14.82" height="14.82"/><rect class="cls-1" x="400.23" y="44.47" width="14.82" height="14.82"/><rect class="cls-1" x="489.17" y="44.47" width="14.82" height="14.82"/><rect class="cls-1" x="222.35" y="44.47" width="14.82" height="14.82"/><rect class="cls-1" x="44.47" y="44.47" width="14.82" height="14.82"/><rect class="cls-1" x="311.29" y="44.47" width="14.82" height="14.82"/><rect class="cls-1" x="133.41" y="44.47" width="14.82" height="14.82"/><rect class="cls-1" x="444.7" y="59.29" width="14.82" height="14.82"/><rect class="cls-1" x="533.64" y="59.29" width="14.82" height="14.82"/><rect class="cls-1" x="266.82" y="59.29" width="14.82" height="14.82"/><rect class="cls-1" x="88.94" y="59.29" width="14.82" height="14.82"/><rect class="cls-1" x="355.76" y="59.29" width="14.82" height="14.82"/><rect class="cls-1" x="177.88" y="59.29" width="14.82" height="14.82"/><rect class="cls-1" y="59.29" width="14.82" height="14.82"/><rect class="cls-1" x="415.05" y="59.29" width="14.82" height="14.82"/><rect class="cls-1" x="503.99" y="59.29" width="14.82" height="14.82"/><rect class="cls-1" x="237.17" y="59.29" width="14.82" height="14.82"/><rect class="cls-1" x="59.29" y="59.29" width="14.82" height="14.82"/><rect class="cls-1" x="326.11" y="59.29" width="14.82" height="14.82"/><rect class="cls-1" x="148.23" y="59.29" width="14.82" height="14.82"/><rect class="cls-1" x="385.41" y="59.29" width="14.82" height="14.82"/><rect class="cls-1" x="207.53" y="59.29" width="14.82" height="14.82"/><rect class="cls-1" x="29.65" y="59.29" width="14.82" height="14.82"/><rect class="cls-1" x="296.47" y="59.29" width="14.82" height="14.82"/><rect class="cls-1" x="118.59" y="59.29" width="14.82" height="14.82"/><rect class="cls-1" x="474.35" y="59.29" width="14.82" height="14.82"/><rect class="cls-1" x="444.7" width="14.82" height="14.82"/><rect class="cls-1" x="533.64" width="14.82" height="14.82"/><rect class="cls-1" x="266.82" width="14.82" height="14.82"/><rect class="cls-1" x="88.94" width="14.82" height="14.82"/><rect class="cls-1" x="355.76" width="14.82" height="14.82"/><rect class="cls-1" x="177.88" width="14.82" height="14.82"/><rect class="cls-1" width="14.82" height="14.82"/><rect class="cls-1" x="415.05" width="14.82" height="14.82"/><rect class="cls-1" x="503.99" width="14.82" height="14.82"/><rect class="cls-1" x="237.17" width="14.82" height="14.82"/><rect class="cls-1" x="59.29" width="14.82" height="14.82"/><rect class="cls-1" x="326.11" width="14.82" height="14.82"/><rect class="cls-1" x="148.23" width="14.82" height="14.82"/><rect class="cls-1" x="385.41" width="14.82" height="14.82"/><rect class="cls-1" x="207.53" width="14.82" height="14.82"/><rect class="cls-1" x="29.65" width="14.82" height="14.82"/><rect class="cls-1" x="296.47" width="14.82" height="14.82"/><rect class="cls-1" x="118.59" width="14.82" height="14.82"/><rect class="cls-1" x="474.35" width="14.82" height="14.82"/><rect class="cls-1" x="459.52" y="14.82" width="14.82" height="14.82"/><rect class="cls-1" x="281.64" y="14.82" width="14.82" height="14.82"/><rect class="cls-1" x="103.76" y="14.82" width="14.82" height="14.82"/><rect class="cls-1" x="370.58" y="14.82" width="14.82" height="14.82"/><rect class="cls-1" x="192.7" y="14.82" width="14.82" height="14.82"/><rect class="cls-1" x="14.82" y="14.82" width="14.82" height="14.82"/><rect class="cls-1" x="429.88" y="14.82" width="14.82" height="14.82"/><rect class="cls-1" x="518.82" y="14.82" width="14.82" height="14.82"/><rect class="cls-1" x="252" y="14.82" width="14.82" height="14.82"/><rect class="cls-1" x="74.12" y="14.82" width="14.82" height="14.82"/><rect class="cls-1" x="340.94" y="14.82" width="14.82" height="14.82"/><rect class="cls-1" x="163.06" y="14.82" width="14.82" height="14.82"/><rect class="cls-1" x="400.23" y="14.82" width="14.82" height="14.82"/><rect class="cls-1" x="489.17" y="14.82" width="14.82" height="14.82"/><rect class="cls-1" x="222.35" y="14.82" width="14.82" height="14.82"/><rect class="cls-1" x="44.47" y="14.82" width="14.82" height="14.82"/><rect class="cls-1" x="311.29" y="14.82" width="14.82" height="14.82"/><rect class="cls-1" x="133.41" y="14.82" width="14.82" height="14.82"/><rect class="cls-1" x="444.7" y="29.65" width="14.82" height="14.82"/><rect class="cls-1" x="533.64" y="29.65" width="14.82" height="14.82"/><rect class="cls-1" x="266.82" y="29.65" width="14.82" height="14.82"/><rect class="cls-1" x="88.94" y="29.65" width="14.82" height="14.82"/><rect class="cls-1" x="355.76" y="29.65" width="14.82" height="14.82"/><rect class="cls-1" x="177.88" y="29.65" width="14.82" height="14.82"/><rect class="cls-1" y="29.65" width="14.82" height="14.82"/><rect class="cls-1" x="415.05" y="29.65" width="14.82" height="14.82"/><rect class="cls-1" x="503.99" y="29.65" width="14.82" height="14.82"/><rect class="cls-1" x="237.17" y="29.65" width="14.82" height="14.82"/><rect class="cls-1" x="59.29" y="29.65" width="14.82" height="14.82"/><rect class="cls-1" x="326.11" y="29.65" width="14.82" height="14.82"/><rect class="cls-1" x="148.23" y="29.65" width="14.82" height="14.82"/><rect class="cls-1" x="385.41" y="29.65" width="14.82" height="14.82"/><rect class="cls-1" x="207.53" y="29.65" width="14.82" height="14.82"/><rect class="cls-1" x="29.65" y="29.65" width="14.82" height="14.82"/><rect class="cls-1" x="296.47" y="29.65" width="14.82" height="14.82"/><rect class="cls-1" x="118.59" y="29.65" width="14.82" height="14.82"/><rect class="cls-1" x="474.35" y="29.65" width="14.82" height="14.82"/><rect class="cls-1" x="607.86" y="44.47" width="14.82" height="14.82"/><rect class="cls-1" x="578.22" y="44.47" width="14.82" height="14.82"/><rect class="cls-1" x="667.16" y="44.47" width="14.82" height="14.82"/><rect class="cls-1" x="548.57" y="44.47" width="14.82" height="14.82"/><rect class="cls-1" x="637.51" y="44.47" width="14.82" height="14.82"/><rect class="cls-1" x="593.04" y="59.29" width="14.82" height="14.82"/><rect class="cls-1" x="681.98" y="59.29" width="14.82" height="14.82"/><rect class="cls-1" x="563.39" y="59.29" width="14.82" height="14.82"/><rect class="cls-1" x="652.33" y="59.29" width="14.82" height="14.82"/><rect class="cls-1" x="622.69" y="59.29" width="14.82" height="14.82"/><rect class="cls-1" x="593.04" width="14.82" height="14.82"/><rect class="cls-1" x="681.98" width="14.82" height="14.82"/><rect class="cls-1" x="563.39" width="14.82" height="14.82"/><rect class="cls-1" x="652.33" width="14.82" height="14.82"/><rect class="cls-1" x="622.69" width="14.82" height="14.82"/><rect class="cls-1" x="607.86" y="14.82" width="14.82" height="14.82"/><rect class="cls-1" x="578.22" y="14.82" width="14.82" height="14.82"/><rect class="cls-1" x="667.16" y="14.82" width="14.82" height="14.82"/><rect class="cls-1" x="548.57" y="14.82" width="14.82" height="14.82"/><rect class="cls-1" x="637.51" y="14.82" width="14.82" height="14.82"/><rect class="cls-1" x="593.04" y="29.65" width="14.82" height="14.82"/><rect class="cls-1" x="681.98" y="29.65" width="14.82" height="14.82"/><rect class="cls-1" x="563.39" y="29.65" width="14.82" height="14.82"/><rect class="cls-1" x="652.33" y="29.65" width="14.82" height="14.82"/><rect class="cls-1" x="622.69" y="29.65" width="14.82" height="14.82"/><rect class="cls-1" x="697.19" y="44.47" width="14.82" height="14.82"/><rect class="cls-1" x="756.48" y="44.47" width="14.82" height="14.82"/><rect class="cls-1" x="726.83" y="44.47" width="14.82" height="14.82"/><rect class="cls-1" x="771.3" y="59.29" width="14.82" height="14.82"/><rect class="cls-1" x="741.66" y="59.29" width="14.82" height="14.82"/><rect class="cls-1" x="712.01" y="59.29" width="14.82" height="14.82"/><rect class="cls-1" x="771.3" width="14.82" height="14.82"/><rect class="cls-1" x="741.66" width="14.82" height="14.82"/><rect class="cls-1" x="712.01" width="14.82" height="14.82"/><rect class="cls-1" x="697.19" y="14.82" width="14.82" height="14.82"/><rect class="cls-1" x="756.48" y="14.82" width="14.82" height="14.82"/><rect class="cls-1" x="726.83" y="14.82" width="14.82" height="14.82"/><rect class="cls-1" x="771.3" y="29.65" width="14.82" height="14.82"/><rect class="cls-1" x="741.66" y="29.65" width="14.82" height="14.82"/><rect class="cls-1" x="712.01" y="29.65" width="14.82" height="14.82"/><rect class="cls-1" x="815.52" y="44.47" width="14.82" height="14.82"/><rect class="cls-1" x="785.88" y="44.47" width="14.82" height="14.82"/><rect class="cls-1" x="874.82" y="44.47" width="14.82" height="14.82"/><rect class="cls-1" x="845.17" y="44.47" width="14.82" height="14.82"/><rect class="cls-1" x="800.7" y="59.29" width="14.82" height="14.82"/><rect class="cls-1" x="889.64" y="59.29" width="14.82" height="14.82"/><rect class="cls-1" x="859.99" y="59.29" width="14.82" height="14.82"/><rect class="cls-1" x="830.35" y="59.29" width="14.82" height="14.82"/><rect class="cls-1" x="800.7" width="14.82" height="14.82"/><rect class="cls-1" x="889.64" width="14.82" height="14.82"/><rect class="cls-1" x="859.99" width="14.82" height="14.82"/><rect class="cls-1" x="830.35" width="14.82" height="14.82"/><rect class="cls-1" x="815.52" y="14.82" width="14.82" height="14.82"/><rect class="cls-1" x="785.88" y="14.82" width="14.82" height="14.82"/><rect class="cls-1" x="874.82" y="14.82" width="14.82" height="14.82"/><rect class="cls-1" x="845.17" y="14.82" width="14.82" height="14.82"/><rect class="cls-1" x="800.7" y="29.65" width="14.82" height="14.82"/><rect class="cls-1" x="889.64" y="29.65" width="14.82" height="14.82"/><rect class="cls-1" x="859.99" y="29.65" width="14.82" height="14.82"/><rect class="cls-1" x="830.35" y="29.65" width="14.82" height="14.82"/><rect class="cls-1" x="963.86" y="44.47" width="14.82" height="14.82"/><rect class="cls-1" x="934.22" y="44.47" width="14.82" height="14.82"/><rect class="cls-1" x="1023.16" y="44.47" width="14.82" height="14.82"/><rect class="cls-1" x="904.57" y="44.47" width="14.82" height="14.82"/><rect class="cls-1" x="993.51" y="44.47" width="14.82" height="14.82"/><rect class="cls-1" x="949.04" y="59.29" width="14.82" height="14.82"/><rect class="cls-1" x="1037.98" y="59.29" width="14.82" height="14.82"/><rect class="cls-1" x="919.39" y="59.29" width="14.82" height="14.82"/><rect class="cls-1" x="1008.33" y="59.29" width="14.82" height="14.82"/><rect class="cls-1" x="978.69" y="59.29" width="14.82" height="14.82"/><rect class="cls-1" x="949.04" width="14.82" height="14.82"/><rect class="cls-1" x="1037.98" width="14.82" height="14.82"/><rect class="cls-1" x="919.39" width="14.82" height="14.82"/><rect class="cls-1" x="1008.33" width="14.82" height="14.82"/><rect class="cls-1" x="978.69" width="14.82" height="14.82"/><rect class="cls-1" x="963.86" y="14.82" width="14.82" height="14.82"/><rect class="cls-1" x="934.22" y="14.82" width="14.82" height="14.82"/><rect class="cls-1" x="1023.16" y="14.82" width="14.82" height="14.82"/><rect class="cls-1" x="904.57" y="14.82" width="14.82" height="14.82"/><rect class="cls-1" x="993.51" y="14.82" width="14.82" height="14.82"/><rect class="cls-1" x="949.04" y="29.65" width="14.82" height="14.82"/><rect class="cls-1" x="1037.98" y="29.65" width="14.82" height="14.82"/><rect class="cls-1" x="919.39" y="29.65" width="14.82" height="14.82"/><rect class="cls-1" x="1008.33" y="29.65" width="14.82" height="14.82"/><rect class="cls-1" x="978.69" y="29.65" width="14.82" height="14.82"/><rect class="cls-1" x="1053.19" y="44.47" width="14.82" height="14.82"/><rect class="cls-1" x="1112.48" y="44.47" width="14.82" height="14.82"/><rect class="cls-1" x="1082.83" y="44.47" width="14.82" height="14.82"/><rect class="cls-1" x="1127.3" y="59.29" width="14.82" height="14.82"/><rect class="cls-1" x="1097.66" y="59.29" width="14.82" height="14.82"/><rect class="cls-1" x="1068.01" y="59.29" width="14.82" height="14.82"/><rect class="cls-1" x="1127.3" width="14.82" height="14.82"/><rect class="cls-1" x="1097.66" width="14.82" height="14.82"/><rect class="cls-1" x="1068.01" width="14.82" height="14.82"/><rect class="cls-1" x="1053.19" y="14.82" width="14.82" height="14.82"/><rect class="cls-1" x="1112.48" y="14.82" width="14.82" height="14.82"/><rect class="cls-1" x="1082.83" y="14.82" width="14.82" height="14.82"/><rect class="cls-1" x="1127.3" y="29.65" width="14.82" height="14.82"/><rect class="cls-1" x="1097.66" y="29.65" width="14.82" height="14.82"/><rect class="cls-1" x="1068.01" y="29.65" width="14.82" height="14.82"/><rect class="cls-1" x="1171.86" y="44.47" width="14.82" height="14.82"/><rect class="cls-1" x="1142.22" y="44.47" width="14.82" height="14.82"/><rect class="cls-1" x="1231.16" y="44.47" width="14.82" height="14.82"/><rect class="cls-1" x="1201.51" y="44.47" width="14.82" height="14.82"/><rect class="cls-1" x="1157.04" y="59.29" width="14.82" height="14.82"/><rect class="cls-1" x="1245.98" y="59.29" width="14.82" height="14.82"/><rect class="cls-1" x="1216.33" y="59.29" width="14.82" height="14.82"/><rect class="cls-1" x="1186.69" y="59.29" width="14.82" height="14.82"/><rect class="cls-1" x="1157.04" width="14.82" height="14.82"/><rect class="cls-1" x="1245.98" width="14.82" height="14.82"/><rect class="cls-1" x="1216.33" width="14.82" height="14.82"/><rect class="cls-1" x="1186.69" width="14.82" height="14.82"/><rect class="cls-1" x="1171.86" y="14.82" width="14.82" height="14.82"/><rect class="cls-1" x="1142.22" y="14.82" width="14.82" height="14.82"/><rect class="cls-1" x="1231.16" y="14.82" width="14.82" height="14.82"/><rect class="cls-1" x="1201.51" y="14.82" width="14.82" height="14.82"/><rect class="cls-1" x="1157.04" y="29.65" width="14.82" height="14.82"/><rect class="cls-1" x="1245.98" y="29.65" width="14.82" height="14.82"/><rect class="cls-1" x="1216.33" y="29.65" width="14.82" height="14.82"/><rect class="cls-1" x="1186.69" y="29.65" width="14.82" height="14.82"/><rect class="cls-1" x="1261.19" y="44.47" width="14.82" height="14.82"/><rect class="cls-1" x="1320.48" y="44.47" width="14.82" height="14.82"/><rect class="cls-1" x="1290.83" y="44.47" width="14.82" height="14.82"/><rect class="cls-1" x="1335.3" y="59.29" width="14.82" height="14.82"/><rect class="cls-1" x="1305.66" y="59.29" width="14.82" height="14.82"/><rect class="cls-1" x="1276.01" y="59.29" width="14.82" height="14.82"/><rect class="cls-1" x="1335.3" width="14.82" height="14.82"/><rect class="cls-1" x="1305.66" width="14.82" height="14.82"/><rect class="cls-1" x="1276.01" width="14.82" height="14.82"/><rect class="cls-1" x="1261.19" y="14.82" width="14.82" height="14.82"/><rect class="cls-1" x="1320.48" y="14.82" width="14.82" height="14.82"/><rect class="cls-1" x="1290.83" y="14.82" width="14.82" height="14.82"/><rect class="cls-1" x="1335.3" y="29.65" width="14.82" height="14.82"/><rect class="cls-1" x="1305.66" y="29.65" width="14.82" height="14.82"/><rect class="cls-1" x="1276.01" y="29.65" width="14.82" height="14.82"/></g></g></svg>